<?xml version="1.0" encoding="UTF-8"?>
<svg id="_레이어_2" data-name="레이어_2" xmlns="http://www.w3.org/2000/svg" viewBox="0 0 139.44 32.11">
  <defs>
    <style>
      .cls-1 {
        fill: #2b2b2b;
      }

      .cls-2 {
        fill: #fff;
      }

      .cls-3 {
        fill: #ff6161;
      }
    </style>
  </defs>
  <g id="_레이어_1-2" data-name="레이어_1">
    <g>
      <g>
        <path class="cls-1" d="M29.29,18.13h-12.44v2.25c5.58.42,8.85,2.45,8.88,5.75-.02,3.83-4.21,5.9-11.17,5.89-7,.01-11.22-2.05-11.22-5.89,0-3.31,3.34-5.35,9-5.76v-2.24H0v-3.64h29.29v3.64ZM3.54,1.43h22.24v3.5H8.02v3.91h17.92v3.51H3.54V1.43ZM14.56,28.67c4.36.01,6.65-.85,6.66-2.54-.01-1.66-2.3-2.42-6.66-2.42s-6.66.76-6.64,2.42c-.03,1.69,2.2,2.55,6.64,2.54Z"/>
        <path class="cls-1" d="M51.61,21.7l-2.42,3.52c-3.79-1.59-6.39-4.78-7.83-8.67-1.44,4.22-4.1,7.73-7.88,9.46l-2.55-3.52c5.3-2.38,8.06-8.32,8.07-13.76v-1.97h-6.81v-3.67h18.09v3.67h-6.71v1.97c0,5.19,2.68,10.73,8.04,12.96ZM53.44,0h4.54v32.07h-4.54V0Z"/>
        <path class="cls-1" d="M91.61,18.7h-29.28v-3.56h12.45v-2.74h-8.91V1.43h22.24v3.5h-17.76v3.95h17.92v3.52h-9.08v2.74h12.43v3.56ZM76.88,20.29c6.96,0,11.14,2.12,11.17,5.93-.03,3.75-4.21,5.88-11.17,5.89-7-.01-11.22-2.14-11.22-5.89s4.22-5.93,11.22-5.93ZM76.88,28.67c4.36.01,6.65-.78,6.66-2.45-.01-1.66-2.3-2.5-6.66-2.5s-6.66.85-6.64,2.5c-.02,1.67,2.2,2.47,6.64,2.45Z"/>
        <path class="cls-1" d="M113.93,21.7l-2.42,3.52c-3.79-1.59-6.39-4.78-7.83-8.67-1.44,4.22-4.1,7.73-7.88,9.46l-2.55-3.52c5.3-2.38,8.06-8.32,8.07-13.76v-1.97h-6.81v-3.67h18.09v3.67h-6.71v1.97c0,5.19,2.68,10.73,8.04,12.96ZM115.76,0h4.54v32.07h-4.54V0Z"/>
      </g>
      <g>
        <path class="cls-3" d="M139.38,26.5c-.1-.06-.39.21-.47.26-.22.14-.46.26-.73.22-.23-.03-.43-.19-.56-.38-.14-.19-.23-.41-.3-.64-.11-.37-.16-.76-.26-1.11-.14-.48-.32-.96-.56-1.41-.43-.8-1.06-1.44-1.91-1.78-.16-.06-.33-.09-.5-.13.08-.11.13-.24.14-.37.01-.23-.09-.56-.28-.6-.19-.04-.44.17-.67.46.02-.16,0-.31-.07-.45-.11-.2-.36-.44-.55-.38-.27.08-.38.71-.37,1.22-2.76.25-4.85,2.62-4.85,5.27,0,3.12,2.92,5.05,5.31,5.31,2.84.31,4.82-1.72,5.06-1.97,1.32-1.41,1.83-3.35,1.58-3.51Z"/>
        <path class="cls-2" d="M129.84,26.67l.55-.93c.08-.14-.03-.32-.19-.3l-1.31.17c-.16.02-.23.22-.11.33l.76.76c.09.09.24.07.31-.04Z"/>
        <circle class="cls-2" cx="129.88" cy="24.23" r=".36"/>
        <circle class="cls-2" cx="131.67" cy="25.48" r=".36"/>
      </g>
    </g>
  </g>
</svg>